<svg width="833" height="622" viewBox="0 0 833 622" fill="none" xmlns="http://www.w3.org/2000/svg">
<path opacity="0.5" d="M637 91L651.797 76.3975C657.639 70.633 667.028 70.633 672.869 76.3975L677.131 80.6025C682.972 86.367 692.361 86.367 698.203 80.6025L713 66" stroke="#4E887A" stroke-width="13" stroke-linecap="round"/>
<path opacity="0.5" d="M718 103L732.797 88.3975C738.639 82.633 748.028 82.633 753.869 88.3975L758.131 92.6025C763.972 98.367 773.361 98.367 779.203 92.6025L794 78" stroke="#4E887A" stroke-width="13" stroke-linecap="round"/>
<path opacity="0.5" d="M7.10382 602.034L22.0444 587.578C27.9424 581.872 37.3314 581.964 43.1156 587.786L47.335 592.033C53.1192 597.855 62.5082 597.947 68.4062 592.241L83.3468 577.785" stroke="#4E887A" stroke-width="13" stroke-linecap="round"/>
<path opacity="0.5" d="M87.9815 614.833L102.922 600.377C108.82 594.67 118.209 594.763 123.993 600.585L128.213 604.831C133.997 610.653 143.386 610.746 149.284 605.039L164.224 590.584" stroke="#4E887A" stroke-width="13" stroke-linecap="round"/>
<circle opacity="0.5" cx="788.113" cy="554.238" r="20.5" transform="rotate(0.565347 788.113 554.238)" fill="#4E887A"/>
<circle opacity="0.5" cx="783.5" cy="599.5" r="13.5" fill="#4E887A"/>
<circle opacity="0.5" cx="822" cy="578" r="11" fill="#4E887A"/>
<circle opacity="0.5" cx="164.393" cy="16.0573" r="15.5" transform="rotate(0.565347 164.393 16.0573)" fill="#4E887A"/>
<circle opacity="0.5" cx="159.028" cy="53.0062" r="10.5" transform="rotate(0.565347 159.028 53.0062)" fill="#4E887A"/>
<circle opacity="0.5" cx="188.185" cy="37.2932" r="8.5" transform="rotate(0.565347 188.185 37.2932)" fill="#4E887A"/>
</svg>
